<svg xmlns="http://www.w3.org/2000/svg" viewBox="0 0 24 31.23"><g id="Layer_2" data-name="Layer 2"><g id="Layer_1-2" data-name="Layer 1"><path d="M21.59,12.65c-.46-.11-.54-.27-.52-.69,0-1,0-2,0-3.11a9,9,0,0,0-8-8.81c-.31,0-.63,0-.93,0A9.35,9.35,0,0,0,6.27,2,8.74,8.74,0,0,0,3.11,7.19a15.58,15.58,0,0,0-.18,3.33c0,.47,0,1,0,1.43V12c0,.35,0,.54-.42.65A3.25,3.25,0,0,0,.58,13.78,3.54,3.54,0,0,0,0,16v6.78c0,1.67,0,3.34,0,5a3.49,3.49,0,0,0,.87,2.59,3.52,3.52,0,0,0,2.6.87H20.39a3.69,3.69,0,0,0,2.73-.88A3.76,3.76,0,0,0,24,27.6c0-3.46,0-7.57,0-11.8A3,3,0,0,0,21.59,12.65ZM7,2.42A8.19,8.19,0,0,1,11.94.7a8.65,8.65,0,0,1,3.72.9,7.77,7.77,0,0,1,4.6,7.13c0,.59,0,1.19,0,1.77s0,1,0,1.52a.67.67,0,0,1-.1.45.35.35,0,0,1-.28.09h-.11a3.93,3.93,0,0,0-.49,0h-.53a.4.4,0,0,1-.27-.08.57.57,0,0,1-.09-.42c0-1.3,0-2.28,0-3.21A6.39,6.39,0,0,0,12,2.65h0A6.47,6.47,0,0,0,5.57,8.82c0,1.13,0,2.15,0,3.12a.76.76,0,0,1-.11.52.48.48,0,0,1-.33.1H5a1.94,1.94,0,0,0-.35,0l-.49,0H4.05a.33.33,0,0,1-.26-.08.44.44,0,0,1-.08-.34c0-.47,0-1,0-1.42v-.59h0A8.18,8.18,0,0,1,7,2.42ZM6.35,10.3c0-.41,0-.83,0-1.25A5.75,5.75,0,0,1,12,3.44h0a5.64,5.64,0,0,1,5.56,5.65c0,.38,0,.76,0,1.12,0,.56,0,1.15,0,1.72a.67.67,0,0,1-.1.5c-.08.09-.23.12-.51.12H17l-2.16,0H9.17L7,12.55H6.93a.66.66,0,0,1-.48-.13.74.74,0,0,1-.1-.54C6.37,11.36,6.36,10.82,6.35,10.3Zm.55,3H20.54c1.82,0,2.6.77,2.6,2.56,0,4.8,0,8.49,0,12a2.64,2.64,0,0,1-.62,1.92,2.59,2.59,0,0,1-1.91.63H3.33A2.27,2.27,0,0,1,.79,27.88c0-3.48,0-7.6,0-11.79,0-2,.77-2.73,2.72-2.73Z"/><path d="M10.07,23.82c-.1.28-.16.58-.24.88-.57,2.09-.57,2.09,1.64,2.11H12c.58,0,1.16,0,1.73,0,.77.05,1.07-.15.77-1s-.52-1.87-.8-2.8A.86.86,0,0,1,14,22a2.71,2.71,0,0,0,.21-3.85,2.86,2.86,0,0,0-4-.36,2.6,2.6,0,0,0-.44,3.8A1.81,1.81,0,0,1,10.07,23.82Z"/><path d="M2.9,20.52c0-.27,0-.66-.29-.67s-.28.39-.28.64c0,1.13,0,2.25,0,3.38h0c0,1.09,0,2.19,0,3.28,0,.25-.23.7.22.73s.34-.41.34-.7Q2.91,23.85,2.9,20.52Z"/><path d="M2.62,18.27c.27,0,.34-.22.33-.44s-.15-.38-.45-.43a.48.48,0,0,0-.27.47C2.25,18.09,2.36,18.28,2.62,18.27Z"/></g></g></svg>