<svg xmlns="http://www.w3.org/2000/svg" viewBox="0 0 24 19.98"><g id="Layer_2" data-name="Layer 2"><g id="Layer_1-2" data-name="Layer 1"><path d="M15.64,20a2.44,2.44,0,0,1-2.58-2.56,2.44,2.44,0,0,0,0-.27c0-.33,0-.67,0-1,0-.17,0-.27-.06-.33s-.16-.09-.36-.09H7.27a.61.61,0,0,1-.5-.15.64.64,0,0,1-.12-.53c0-.31,0-.63,0-1s0-.56,0-.84A.38.38,0,0,0,6.6,13a.41.41,0,0,0-.29-.07H3.09A2.88,2.88,0,0,1,0,9.88C0,7.5,0,5.17,0,3A2.94,2.94,0,0,1,.83.85,3,3,0,0,1,3,0h7.31a2.8,2.8,0,0,1,2.94,3v.42c0,.48,0,1,0,1.45a.56.56,0,0,0,.07.41.53.53,0,0,0,.38.1h2.87l1.29,0h.06a.67.67,0,0,1,.52.16.84.84,0,0,1,.15.59c0,.35,0,.72,0,1.07a12.93,12.93,0,0,1,0,1.39.68.68,0,0,0,.1.52c.07.08.2.11.42.11h.15c.3,0,.62,0,1,0l1,0h.4A2.33,2.33,0,0,1,24,11.59c0,1.91,0,3.87,0,5.84a2.56,2.56,0,0,1-.69,1.87,2.62,2.62,0,0,1-1.88.67H15.64Zm.69-10.25h-.58a1.86,1.86,0,0,0-2.1,2c0,1.86,0,3.76,0,5.65a1.82,1.82,0,0,0,2,2h5.71a1.8,1.8,0,0,0,2-2c0-1.85,0-3.76,0-5.85a1.78,1.78,0,0,0-1.89-1.88H16.33Zm-4.82,5.45c.36,0,.66,0,.94,0h.14a.54.54,0,0,0,.39-.1.65.65,0,0,0,.09-.49c-.05-1,0-2,0-3a2.48,2.48,0,0,1,.72-1.76,2.51,2.51,0,0,1,1.76-.69H17.6a.44.44,0,0,0,.3-.07A.49.49,0,0,0,18,8.79c0-.76,0-1.58,0-2.53A.41.41,0,0,0,17.91,6a.38.38,0,0,0-.29-.08h0c-.82,0-1.5,0-2.15,0H13.63a.5.5,0,0,0-.35.08.55.55,0,0,0-.08.39c0,1.08,0,2.24,0,3.65a2.89,2.89,0,0,1-.84,2.08,3,3,0,0,1-2.1.83H9c-.94,0-1.41,0-1.63.22s-.19.69-.16,1.64v0c0,.31.1.36.35.36h4ZM4.41.56H3A2.31,2.31,0,0,0,.58,2.91c0,2.55,0,4.9,0,7.16a2.26,2.26,0,0,0,2.18,2.27c1.14,0,2.3,0,3.44,0,1.41,0,2.84,0,4.26,0a2.18,2.18,0,0,0,2.17-2.2c0-2.63,0-5,0-7.23A2.26,2.26,0,0,0,10.26.56H4.41Z"/><path d="M23.92,11.59a2.25,2.25,0,0,0-2.34-2.35c-.79,0-1.59,0-2.39,0-.56,0-.79-.08-.74-.71.06-.81,0-1.63,0-2.45,0-.49-.1-.69-.65-.68-1.37,0-2.74,0-4.12,0-.47,0-.59-.14-.57-.59,0-.62,0-1.24,0-1.86A2.73,2.73,0,0,0,10.27.08H3A2.77,2.77,0,0,0,.08,3q0,3.45,0,6.91a2.82,2.82,0,0,0,3,3c1.06,0,2.13,0,3.19,0,.34,0,.47.07.46.44,0,.59,0,1.19,0,1.79,0,.45.1.61.58.6,1.77,0,3.54,0,5.31,0,.4,0,.57.06.53.5s0,.84,0,1.26a2.36,2.36,0,0,0,2.51,2.48h5.78a2.3,2.3,0,0,0,2.5-2.47C23.93,15.48,23.93,13.54,23.92,11.59Zm-21.16.83A2.33,2.33,0,0,1,.51,10.07c0-2.39,0-4.78,0-7.16A2.38,2.38,0,0,1,3,.49h7.3A2.33,2.33,0,0,1,12.7,2.9q0,3.61,0,7.23a2.26,2.26,0,0,1-2.24,2.27Q6.62,12.47,2.76,12.42Zm9.68,2.85c-.77,0-1.54,0-2.32,0s-1.68,0-2.52,0c-.33,0-.45-.08-.46-.44-.07-2-.08-2,1.86-2h1.26A2.78,2.78,0,0,0,13.13,10c0-1.22,0-2.44,0-3.65,0-.45.13-.56.56-.55,1.31,0,2.61,0,3.92,0,.34,0,.46.09.45.44,0,.84,0,1.68,0,2.52,0,.41-.16.48-.51.47-.66,0-1.33,0-2,0a2.35,2.35,0,0,0-2.41,2.38c0,1,0,2,0,3C13.18,15.18,13,15.31,12.44,15.27Zm11,2.18a1.86,1.86,0,0,1-2.08,2H15.7a1.9,1.9,0,0,1-2.12-2.08c0-1.88,0-3.77,0-5.65a1.92,1.92,0,0,1,2.16-2.1h5.79a1.85,1.85,0,0,1,2,1.95Q23.51,14.53,23.49,17.45Z"/><path d="M19.45,4.53a1,1,0,0,0,1.09-1,1.05,1.05,0,0,0-2.1,0A1,1,0,0,0,19.45,4.53Zm0-1.61c.37,0,.55.23.6.59a.58.58,0,0,1-.58.59.54.54,0,0,1-.61-.61A.54.54,0,0,1,19.49,2.92Z"/><path d="M6.18,16.41a1,1,0,1,0,1,1A1,1,0,0,0,6.18,16.41Zm.54,1.06c0,.37-.29.51-.62.55s-.58-.26-.56-.62a.53.53,0,0,1,.65-.56A.54.54,0,0,1,6.72,17.47Z"/><path d="M9.45,9.32H3.61c-.51,0-.58-.16-.32-.58,1-1.66,2-3.33,3-5,.24-.4.4-.47.67,0,1,1.66,1.94,3.31,2.91,5C10.19,9.26,10.15,9.31,9.45,9.32Z"/><path d="M18.87,11.86c-.13-.21-.24-.3-.36-.3s-.24.09-.37.31c-.84,1.44-1.72,2.91-2.67,4.49-.15.24-.19.41-.12.53s.31.17.52.17h5.31c.27,0,.41-.05.47-.16s0-.27-.09-.49C20.77,15.09,19.94,13.69,18.87,11.86Zm-2.72,4.59s0-.06.06-.21l1.7-2.85.6-1,.56.95,1.73,2.95c.06.11.05.15,0,.16s0,.05-.19.05H16.34C16.19,16.5,16.15,16.46,16.15,16.45Z"/></g></g></svg>