<svg xmlns="http://www.w3.org/2000/svg" viewBox="0 0 24 24.95"><g id="Layer_2" data-name="Layer 2"><g id="Layer_1-2" data-name="Layer 1"><path d="M23.4,5.19a2.3,2.3,0,0,0-.19-3.28c-.27-.26-.56-.51-.84-.76L22,.83A2.71,2.71,0,0,0,20.22,0a2.66,2.66,0,0,0-1.87,1l-.09.11c-.05.06-.1.14-.14.14a.09.09,0,0,1-.06,0,.63.63,0,0,0-.4-.17.69.69,0,0,0-.49.33l-.09.11c-1,1.07-2,2.12-3,3.14A55.39,55.39,0,0,0,8.47,11a.77.77,0,0,0,0,1l-1.32.54c-1.09.45-2.13.87-3.21,1.2a2.45,2.45,0,0,0-1.86,2.08c-.39,1.77-.86,3.55-1.32,5.26-.21.78-.43,1.58-.63,2.38,0,0,0,.09,0,.14s-.13.42,0,.57a.5.5,0,0,0,.42.15H.65v-.05s0,0,0,0h0l0,0C1.81,23,3,21.75,4.11,20.57c.4-.41.81-.83,1.2-1.26l0,0a1.23,1.23,0,0,0,.47-1.24.65.65,0,0,1,.12-.56,1.06,1.06,0,0,1,.76-.38h.05A.88.88,0,0,1,7.6,18a.94.94,0,0,1-.24.68.71.71,0,0,1-.51.2H6.68l-.23,0a1.23,1.23,0,0,0-.93.49C4.36,20.6,3.17,21.83,2,23L.78,24.28l0,0H.71v.08a.57.57,0,0,0,.1.47A.27.27,0,0,0,1,25a1.22,1.22,0,0,0,.38-.09l.08,0,1-.3c2.46-.73,5-1.49,7.51-2.22a1,1,0,0,0,.77-.74c.34-1.07.79-2.46,1.29-3.84.07-.19.14-.4.2-.59a5.27,5.27,0,0,1,.51-1.28A.77.77,0,0,1,13,16a.54.54,0,0,0,.36.21.47.47,0,0,0,.32-.15,10.69,10.69,0,0,1,.81-.7,10.15,10.15,0,0,0,.86-.74c2-2,3.92-4.05,5.8-6.07L23,6.6l.07-.07c.13-.13.34-.34.15-.56s-.13-.44.07-.66ZM13.29,15.42c-.09,0-.17-.1-.25-.2l-.12-.13L11.49,13.8c-.7-.64-1.42-1.29-2.15-1.93a.52.52,0,0,1-.23-.36c0-.09.07-.19.21-.29A1.16,1.16,0,0,0,9.55,11c.1-.15.2-.29.32-.29a.46.46,0,0,1,.28.15c1,.9,2,1.83,3,2.73l.84.77a1.43,1.43,0,0,1,.15.18.18.18,0,0,0,.05.07L14,14.8a3.59,3.59,0,0,1-.54.56.22.22,0,0,1-.13.06ZM4.7,23.18l-2,.6-.39.09-.1,0c0-.13.07-.2.17-.28l.08-.09,1.38-1.44c.69-.72,1.41-1.48,2.11-2.23a.94.94,0,0,1,.74-.3,1.71,1.71,0,0,0,1.19-.48A1.51,1.51,0,0,0,8.29,18a1.55,1.55,0,0,0-1.58-1.52h0a1.58,1.58,0,0,0-1.15.46,1.66,1.66,0,0,0-.43,1.2.64.64,0,0,1-.15.56c-1,1-2,2.13-3,3.17l-.94,1,0,0,0,0H1c.15-.61.3-1.22.46-1.83l1.44-5.74a.58.58,0,0,1,.42-.47c2.21-.85,3.9-1.51,5.48-2.15a.58.58,0,0,1,.2,0,.47.47,0,0,1,.31.16l.2.19c.77.7,1.57,1.43,2.36,2.12.26.22.29.4.16.77-.56,1.56-1.15,3.27-1.79,5.22a.93.93,0,0,1-.73.73C7.92,22.22,6.29,22.71,4.7,23.18Zm18-18.24c-.11.16-.19.17-.23.17h0A.42.42,0,0,1,22.25,5C21.18,4,20.08,3,18.88,2c-.14-.12-.2-.21-.2-.3s.05-.19.17-.33A1.87,1.87,0,0,1,20.2.69a1.78,1.78,0,0,1,1.16.48l.89.77.49.43a1.59,1.59,0,0,1,.52,1.33h0a1.78,1.78,0,0,1-.48,1.18Z"/></g></g></svg>