<svg xmlns="http://www.w3.org/2000/svg" viewBox="0 0 1119 1119"><defs><style>.cls-1{fill:#c46686;}</style></defs><g id="Layer_2" data-name="Layer 2"><g id="Layer_1-2" data-name="Layer 1"><rect class="cls-1" width="1119" height="1119"/><path d="M728.94,477.13l-2.18-3.42c-1.36-.37-2.19-1.43-3.32-2.08-2.29-1.32-2.92-2.63-.38-4.51,5.73-4.23,6.85-9.87,5-16.53-1.32-4.81-5.2-6.69-9-8.75-4.26-2.31-4.09-2.16-1.27-6.11,3.7-5.18,6.8-10.77,5.4-17.47-1.09-5.14-5.45-7.93-9.12-11.12-1-.85-2.12-1.54-3.32-2.41a62.14,62.14,0,0,0,6.27-2.64c10.18-5.67,13.27-19.83,7.29-31.78-3.31-6.61-8.91-9.86-15.6-11.7C698,355.66,687,353.7,676.45,350a14.69,14.69,0,0,0-5.5-.47c-17.56.62-34.63-2.92-51.77-6-9.31-1.65-18.44-4.21-27.86-5.29-2.32-.26-4.28-1-5.36-3.68-1.41-3.52-5-5-8.23-6.39-8.7-3.62-17.52-7-25.87-11.37-6.12-3.22-12.94-3.33-19.51-4.45-6.89-1.18-13.14-4.52-20.13-5.4-4.26-.54-8.64-1.12-12.64-.23-9,2-17.52-.56-26.2-1.47-2.11-.22-4.57.47-6.48-1.16h-9.56c-8.74,3.41-17.48,6.85-26.24,10.23-9.3,3.59-11.35,6-11,15.75.17,5.54-1.72,9.84-4.77,14.2-2.82,4-5.24,8.49-4.21,13.82.29,1.54-.56,1.69-1.77,1.83-3.41.39-6.79,1.17-10.21,1.31-10.25.42-18.48,5.59-26.75,10.84-7,4.44-7.48,10.88-5.09,17.34,4,10.89,14.41,19.24,28.28,17.52,2.34-.29,4.74,0,7.11-.09,1.08,0,1.37.49,1.36,1.42,0,1.55.29,3.08-1.89,3.75a136.57,136.57,0,0,0-18,7,22.81,22.81,0,0,0-7.19,4.81c-5.15,5.47-4.13,13.38,2.36,17.18a18.94,18.94,0,0,0,9,2.42,36.31,36.31,0,0,1,5.9.41c-4.39,3.59-10.93,5.06-11,12.14,0,6.89,5.77,9.47,10.41,13a158.69,158.69,0,0,1-16,11.16,13.92,13.92,0,0,1-2,1l-2.34,5.47c-1.47,9.47,2.27,14.58,12.45,17.23,17.7,4.61,35.77,5.79,54,5.47,4.17-.08,8.12.4,11.95,3-3.74,1.92-7.9,1.63-11.84,3.81,8.8,3.11,17.2,5.79,25.36,9.07a18.36,18.36,0,0,0,13.26.36c2.94-1,5.6-.47,8.43.61,9,3.43,17.56,8.36,27.37,9,9.23.59,17.92,3.07,26.55,6.06,10,3.46,20,2.13,30.19.66,21.11-3.07,40.74-10.93,60.6-18.1a2.73,2.73,0,0,0,.72-.32c6.88-5.18,14.22-5.61,21.84-1.94,1.84.89,3.4-.08,5-.28a153.24,153.24,0,0,0,16.42-2.75c5.07-1.25,10-3.25,15.25-5-3-2.11-6.45-1.64-9.75-3.72,5.06-1.77,9.86-1.95,14.54-2.6a179.25,179.25,0,0,0,21-3.95C729.09,500,733.94,488.79,728.94,477.13ZM606.25,372.19a26.8,26.8,0,0,0-15.12-6.86c-6.24-.79-12.43-2-18.65-2.93A37,37,0,0,1,557,355.92c-2-1.37-3.93-3.15-6.63-3.27-.65,0-1.4-.48-1.2-1.22a1.33,1.33,0,0,1,1.89-.9,46.42,46.42,0,0,1,5.72,2.53c11.13,6.55,23.51,8.6,36,9.94,6.41.68,11,4.48,16,7.94a4.84,4.84,0,0,1,.79,1.07c-.33.4-.56.92-1,1.12C607.58,373.66,606.91,372.78,606.25,372.19Zm8.82,4.56c-1.35.45-2.67,1-3.67,1.41-1.38-.05-2.22-.49-2.58-1.39s.51-1.36,1-1.93a7.23,7.23,0,0,1,4.08-2.16,2.85,2.85,0,0,1,3.33,2.16C617.81,376.66,616.11,376.41,615.07,376.75Zm27.44-6.22c-.87.94-1.61.2-2.33-.48a103,103,0,0,0-11.4-9.2c-8.66-6.18-18.7-8-28.81-9.76a35.66,35.66,0,0,1-17.87-8.93c3.77,1.38,7.52,2.81,11.3,4.14,7.93,2.8,16.15,4.56,24.34,6.29,10.38,2.19,17.35,9,24.16,16.3C642.33,369.35,643.08,369.91,642.51,370.53Zm3.62,4.49c-1.57-.07-3.13-.15-2.92-1.62a3.25,3.25,0,0,1,3.44-2.61,2.06,2.06,0,0,1,2.34,2.1C648.81,374.58,647.24,374.92,646.13,375Z"/><path d="M551.85,691.06a19.93,19.93,0,0,1-6.52-1.19c-23.54-8-47.5-16.06-70.68-23.85L448,657a5.81,5.81,0,0,1-2.68-1.93l-2.43-3,3.81-.31a25.59,25.59,0,0,0,5.48-1.3,25.13,25.13,0,0,1,7.65-1.53,14.15,14.15,0,0,1,4.8.84c16,5.68,32.26,11.29,48,16.71,11.23,3.86,22.84,7.86,34.24,11.85a9.79,9.79,0,0,0,3.28.58,12.51,12.51,0,0,0,4.18-.8l18.49-6.45q24.59-8.57,49.14-17.15c11.86-4.15,23.52-8.3,34.69-12.33a13.57,13.57,0,0,1,4.61-.87,12.33,12.33,0,0,1,5.28,1.23,64.41,64.41,0,0,0,7.47,2.72c1.15.37,2.29.74,3.42,1.13l1.28.44.2,3.9-9.62,3.12q-9.19,3-18.39,6l-24.45,7.87c-22.68,7.3-46.13,14.84-69.15,22.38A31.42,31.42,0,0,1,551.85,691.06Z"/><path d="M676.8,649.39l0-1c-3.7-1.28-7.53-2.29-11.07-3.92a10.3,10.3,0,0,0-8.38-.3q-17.32,6.26-34.71,12.34-33.8,11.84-67.63,23.59a12.52,12.52,0,0,1-8.79.23c-27.39-9.6-54.92-18.83-82.26-28.57-6.48-2.3-11.36,1.63-17.09,2.1a3.69,3.69,0,0,0,1.77,1.3Q497.3,671.54,546,688a15.73,15.73,0,0,0,10.68.29c31.16-10.2,62.4-20.19,93.61-30.25Q663.54,653.72,676.8,649.39Z"/><path d="M714.19,638.67a13.52,13.52,0,0,1-6.48-1.73,74.34,74.34,0,0,0-7.18-3.21c-1.27-.52-2.61-1.07-4-1.68l-4.71-2,21.82-7.68L754,608.09c7.36-2.6,15.91-5.62,24.22-8.63a12.36,12.36,0,0,1,4.27-.79,12.2,12.2,0,0,1,3.93.67c4.43,1.48,9,2.88,13.76,4.35l6.31,1.95,6,1.87-57.39,18.56c-3.39,1.1-6.79,2.18-10.19,3.27-8.49,2.72-17.27,5.53-25.84,8.44A15.06,15.06,0,0,1,714.19,638.67Z"/><path d="M697.29,630.21c4.41,1.9,8,3.17,11.37,5a11.41,11.41,0,0,0,9.81.71c12-4.06,24-7.84,36.07-11.72l51.39-16.62c-7.43-2.31-13.81-4.2-20.11-6.31a9.9,9.9,0,0,0-6.89.1c-8.06,2.92-16.15,5.78-24.23,8.64C735.92,616.61,717.13,623.22,697.29,630.21Z"/><path d="M682.14,648a23.15,23.15,0,0,1-2.77-.17,4.25,4.25,0,0,1-2.13-1l-.22-.18L674.56,645l2.4-1.7c3.22-2.22,6.78-3.26,10.22-4.27a36.74,36.74,0,0,0,7.66-2.86,7.48,7.48,0,0,1,3.07-.78c1.09-.11,1.54-.19,1.92-.59a2.89,2.89,0,0,1,2.12-.93,3.46,3.46,0,0,1,3.26,3,2,2,0,0,0,.14.3,3.4,3.4,0,0,1,.33,3,3,3,0,0,1-2,1.68c-2.08.64-4.2,1.49-6.24,2.3-4.79,1.9-9.74,3.87-15.27,3.87Z"/><path d="M678.09,644.91c.42.26.94.85,1.52.92,8.57,1,15.74-3.54,23.45-5.93,1.71-.53.3-1.77.18-2.66-.16-1.18-1.27-1.84-2-1.11-1.58,1.69-3.78.81-5.47,1.75C690.22,641,683.5,641.18,678.09,644.91Z"/><path d="M548.84,814.86l-.59-.61-.34-.39q-9.48-3.76-19-7.5-10.3-4.07-20.61-8.15l-53.09-21.06q-45.42-18-90.83-36l-23.82-9.39q-11.93-4.68-23.83-9.4c-.21-.08-.45-.15-.7-.23-1.13-.34-2.68-.81-3.36-2.21a3.08,3.08,0,0,1-.07-2.51,4.46,4.46,0,0,1,.28-.58,3.28,3.28,0,0,1-2.35.9,3.13,3.13,0,0,1-3.23-3.18c0-1.08,0-2.16,0-3.24q0-8.73,0-17.49c0-14.35-.06-29.2-.17-43.79,0-1.36,0-2.72,0-4.09a76.54,76.54,0,0,0-.58-12.66l0-.16V610.3l1-.58A39.77,39.77,0,0,1,317.88,606c1.38-.36,2.73-.71,4-1.11a3.61,3.61,0,0,1-2-1.6,3.4,3.4,0,0,1-.13-2.89A3.28,3.28,0,0,1,323,598.1a10.05,10.05,0,0,1,4,1.21c.49.23.94.44,1.29.56,18.38,6.55,37.18,12.88,55.37,19,20.61,6.94,41.92,14.11,62.72,21.64,21,7.61,42.45,15,63.21,22.07,11.56,4,23.51,8.06,35.24,12.15a13,13,0,0,0,1.36.4,9.77,9.77,0,0,0,.07-1.48c-.1-28-.09-56.39-.08-83.87V571c0-1.34,0-2.68,0-4,.08-3.58,2.51-3.86,3.25-3.86l.41,0c1.8.18,2.74,1.46,2.8,3.79,0,.55,0,1,0,1.54v21.8q0,21.4,0,42.8c0,14.18,0,28.34,0,42.84l3.63-1.31,10.38-3.72c35-12.39,66.53-23.57,99-35,2.38-.83,2.69-1.18,2.58-2.85-.18-2.55-.12-5.12-.07-7.6,0-2.23.1-4.52,0-6.74-.28-5,1.73-8.26,6.31-10.28a124.33,124.33,0,0,1,13.73-4.87c2.45-.76,5-1.54,7.41-2.39a9,9,0,0,1,3-.57,4.91,4.91,0,0,1,3.62,1.44,7,7,0,0,1,1.6,5.31c-.14,4.52-.24,9.37,0,14.23a8.51,8.51,0,0,0,.09.92,9.91,9.91,0,0,0,1.07-.32c22.33-7.9,45.94-16.22,76.57-27,1.51-.53,1.82-.93,1.84-2.4.5-31.91,1.11-64.31,1.8-96.29,0-1.7-.33-2-1.81-2.44q-6.39-1.77-12.76-3.61c-4.23-1.21-8.47-2.42-12.71-3.6-7.55-2.09-15-4.1-22.84-6.22l-4.64-1.26-3.89-7.79,4.3,1.16L767,482.51l22.3,6c1.06.29,3.89,1,3.51,4.34-.92,7.82-1.07,15.85-1.22,23.62-.05,2.5-.1,5-.17,7.49-.35,12.18-.51,24.57-.67,36.56q-.13,10.16-.3,20.31c0,1.21,0,2.43,0,3.65,0,4.06.05,8.25-1,12.25a4.57,4.57,0,0,0-.19,1.13c.18.07.48.15.7.22l.64.19c2.42.77,4.84,1.52,7.27,2.27,2.79.86,5.68,1.74,8.51,2.66.14,0,.3.09.46.13a4.33,4.33,0,0,1,2.24,7.45l.08.3a20.77,20.77,0,0,1,.57,5.92q-.11,11.79-.22,23.61c-.22,24.21-.46,49.25-.58,73.87,0,3.66-1.53,5.84-4.93,7.07-3.17,1.13-6.39,2.34-9.5,3.51l-4.87,1.82L553.24,814.86Zm122.87-159c-7,2.29-13.85,4.57-20.76,6.8l-35.41,11.43q-29.4,9.48-58.78,19c-.31.1-.63.19-1,.27-1.63.45-1.84.5-1.83,1.94.18,38.59.13,77.76.06,111.45,0,.33,0,.59,0,.79l.78-.27c12.92-4.93,26.09-9.84,38.82-14.59l17.22-6.44,18.81-7.07c15.23-5.73,31-11.66,46.52-17.36,2.23-.82,2.59-1.37,2.46-3.68-.25-4.26-.19-8.57-.13-12.74,0-1.5,0-3,.05-4.48,0-1.73,0-6.32,4.29-8.22A146.41,146.41,0,0,1,708,724.3a8.29,8.29,0,0,1,1.91-.25,4.63,4.63,0,0,1,3.42,1.33,5.88,5.88,0,0,1,1.49,4.35c0,1.52,0,3,0,4.58,0,3.87,0,7.87-.22,11.82a7.12,7.12,0,0,0,0,1.31,12.24,12.24,0,0,0,1.45-.47c15.35-5.76,31-11.57,46.07-17.19l32.62-12.16c4-1.5,6-2.27,6.7-3.32s.79-3.4.84-7.56l.48-38q.32-25.54.64-51.11c0-.28,0-.56,0-.84a10.38,10.38,0,0,1,.47-3.91l-17.56,5.68c-22.2,7.18-45.16,14.61-67.77,21.85-1.94.62-2.33,1.15-2.34,3.13,0,5.5-.14,11.08-.27,16.48-.11,4.5-.22,9.16-.26,13.73a7.32,7.32,0,0,1-4.28,7.13,23.49,23.49,0,0,1-11.11,2.87h-.47c-4.22,0-8.39,2-12.64,4.26a8.6,8.6,0,0,1-3.93,1.17h0c-1.64,0-4.43-.78-4.8-6-.06-.81,0-1.58,0-2.32v-.63a208.7,208.7,0,0,0-.8-26.29ZM315.8,715.14a7.78,7.78,0,0,1,3,.84l.5.21c16.76,6.72,33.89,13.36,50.45,19.79,23.09,8.95,47,18.21,70.26,27.85,22.83,9.45,46.21,18.66,68.82,27.57,12.33,4.86,25.09,9.89,37.62,14.9l.45.17c0-.19,0-.42,0-.7.23-44.24.46-78.37.76-110.66,0-1.82-.34-2.17-1.76-2.61-3.08-1-6.17-2-9.15-3-2.08-.71-4.15-1.41-6.24-2.09-12-3.9-24.08-8-35.79-12-18.16-6.19-36.93-12.6-55.6-18.27-10.59-3.21-21.21-7-31.49-10.68l-5.31-1.9c-18.16-6.47-36.8-12.59-54.83-18.51q-11.91-3.9-23.79-7.85c-.31-.1-.63-.18-.95-.26a6.58,6.58,0,0,1-4.52-2.81l-1.24-2-2.26.55c-1.12.27-1.29.32-1.29,1.83.18,25.38.26,51.19.34,76.15l.06,20.17c0,1,0,1.94-.07,2.94a3.36,3.36,0,0,1-.41,1.4A3.28,3.28,0,0,1,315.8,715.14Zm6.41-103.37a11.85,11.85,0,0,1,3.32.9c.33.12.66.25,1,.35q9.35,3.06,18.72,6.07c19.15,6.2,38.95,12.6,58.26,19.42a15.67,15.67,0,0,0,5.27.91,33.26,33.26,0,0,0,8.59-1.54l-29.87-10.4q-24.74-8.6-49.46-17.22a17.16,17.16,0,0,0-5.66-1.1,11.79,11.79,0,0,0-4.08.73C326.29,610.62,324.25,611.23,322.21,611.77Z"/><path d="M680.44,683c.29,4.05,2.11,5.12,5.8,3.19,4.36-2.3,9-4.55,13.77-4.49a21.41,21.41,0,0,0,10.48-2.65,5.35,5.35,0,0,0,3.19-5.36c.08-10.07.52-20.14.53-30.2,0-2.95,1.07-4.18,3.73-5q43.15-13.83,86.25-27.83c.5-.16,1-.26,1.53-.42,1.43-.43,2.78-.83,2.74-2.81s-1.58-1.92-2.7-2.28c-5.24-1.7-10.52-3.25-15.77-4.93-1.83-.58-3.36-.58-2.48-4,1.27-4.9.83-10.26.92-15.43.34-19,.43-37.93,1-56.89.3-10.43.18-20.89,1.4-31.28.19-1.66-1-1.9-2.19-2.22q-29.21-7.9-58.39-15.81l1.5,3c9,2.45,17.84,4.82,26.62,7.25,8.5,2.36,17,4.85,25.47,7.21,2.33.64,3.34,1.74,3.28,4.41q-1.05,48.13-1.8,96.28c0,2.5-1.09,3.52-3.18,4.25q-38.29,13.44-76.57,27c-2.49.88-3.68.84-3.82-2.4-.21-4.81-.12-9.58,0-14.38.13-4-1.78-5.54-5.53-4.23-7,2.44-14.19,4.18-21,7.2-3.82,1.69-5.36,4.19-5.13,8.35.26,4.76-.23,9.56.09,14.31.22,3.2-1.48,4-3.91,4.87q-49.5,17.46-99,35c-5.45,1.93-10.88,3.91-16.68,6,0-15.49,0-30.58,0-45.68q0-31.83,0-63.68c0-.79,0-1.59,0-2.38s0-1.79-1-1.89c-1.23-.13-1.43.9-1.45,1.87,0,1.32,0,2.65,0,4,0,34.23-.06,68.45.07,102.68,0,3.65-.76,4.14-4.09,3-32.81-11.44-65.8-22.38-98.47-34.22-39.15-14.18-78.87-26.66-118.08-40.64-1.95-.69-5.15-2.89-5.92-.73-.94,2.64,3.21,1.88,4.77,3.18a6.86,6.86,0,0,0,1.11.6c-6.2,3.13-13.21,3.23-19.05,6.64v21.49c.9,5.66.55,11.37.59,17,.15,20.43.15,40.87.21,61.3,0,1.06,0,2.11,0,3.17a1.12,1.12,0,0,0,1.2,1.24,1.16,1.16,0,0,0,1.32-1.15c.07-.92.07-1.85.07-2.78-.11-32.1-.18-64.21-.4-96.32,0-2.34.71-3.26,2.81-3.78A126.25,126.25,0,0,0,327.6,608c3.88-1.42,7.41-.92,11.09.36q40.4,14.08,80.82,28.13c1.1.38,2.14.94,4.21,1.85-7.55,1.5-13.32,4.71-20.89,2-25.47-9-51.26-17.09-76.94-25.47-1.83-.6-3.65-1.69-5.91-.91,1.06,1.71,2.89,1.72,4.4,2.23C350.62,625,377,633.35,403,642.62c12.19,4.34,24.37,8.81,36.71,12.55,30.74,9.34,60.9,20.37,91.43,30.31,5.13,1.67,10.2,3.52,15.36,5.11,2.39.74,3.19,2,3.17,4.54q-.51,55.32-.76,110.64c0,2.6-.26,3.57-3.21,2.38-35.48-14.19-71.16-27.86-106.46-42.47-40-16.54-80.55-31.53-120.69-47.63-1.43-.59-3.43-1.74-4.12.05-.62,1.61,1.77,1.89,3,2.38,15.87,6.29,31.78,12.5,47.65,18.79q72,28.5,143.92,57.09c13.29,5.27,26.61,10.49,39.91,15.76.3.12.51.5.75.75h3.19L614,790.12l174.91-65.07c4.8-1.78,9.58-3.62,14.39-5.34,2.5-.9,3.6-2.23,3.61-5.19.16-32.5.51-65,.8-97.5a19,19,0,0,0-.5-5.37c-2.19,1.63-1.79,3.91-1.82,6q-.58,44.57-1.12,89.13c-.12,9.4-.13,9.47-8.84,12.73C769.23,729.3,743,739,716.76,748.85c-3.14,1.17-4.41,1.07-4.14-2.85.37-5.41.18-10.85.21-16.29,0-3-1.56-4.16-4.34-3.46a146.09,146.09,0,0,0-24.79,8.29c-2.63,1.17-3.09,3.78-3.11,6.4,0,5.7-.26,11.42.07,17.1.19,3.17-.69,4.54-3.76,5.67-21.82,8-43.55,16.27-65.32,24.43-18.68,7-37.39,13.92-56,21-2.87,1.11-3.52.7-3.51-2.38q.11-55.71-.06-111.43c0-3.48,2.22-3.5,4.16-4.13q47.08-15.27,94.19-30.43c9.63-3.11,19.23-6.3,29-9.51a198.48,198.48,0,0,1,1.1,29C680.42,681.18,680.38,682.11,680.44,683Z"/><path d="M319.56,499.05a3.4,3.4,0,0,1-2.93-5.14,4.08,4.08,0,0,1,3.24-1.52,5,5,0,0,0,.59-.08l19.74-4.7q11.57-2.75,23.14-5.51c1.38-.34,2.82-.6,4.2-.86,1.79-.33,3.48-.64,5.09-1.09l3.52-1-2.36,7.74-1.52,0a7.13,7.13,0,0,0-1.67.3l-.33.08c-19.34,4.6-34.16,8.1-48.08,11.32l-.43.12a8.85,8.85,0,0,1-2.2.37Z"/><path d="M363.8,484.05c-14.29,3.43-28.58,6.79-42.87,10.21-1.14.28-3.27-.05-2.69,1.9.43,1.48,2.34.73,3.5.46q24-5.58,48.05-11.32a9.87,9.87,0,0,1,2.53-.43l.85-2.79C370.15,482.93,366.85,483.31,363.8,484.05Z"/><path d="M674,564.19c-2.25,0-5-1.07-5.21-6.21-.35-8-.33-16.51.07-25.22,0-.58.07-1.49.06-2.15-.6.13-1.39.36-2,.53q-28.89,8.28-57.77,16.61l-32.36,9.32-7.65,2.17c-4,1.12-8.08,2.28-12.1,3.47a12,12,0,0,1-3.48.56,11,11,0,0,1-1.88-.17l-2.17-.39.6-2.12c.93-3.31,3.74-3.8,5.25-4.07.32-.06.63-.11.91-.19,13.22-3.88,26.67-7.75,39.68-11.5q16-4.62,32-9.27c8-2.33,16.11-4.79,24-7.16,15-4.53,30.51-9.21,45.92-13.28,14.85-3.92,29.87-8.24,44.38-12.43,12.11-3.48,24.63-7.09,37-10.45l.26-.07a12.66,12.66,0,0,1,3.37-.57,8.12,8.12,0,0,1,2.51.4l2.34.73-1.19,2.14c-1.5,2.72-3.91,3.2-5.51,3.52-.34.07-.67.13-1,.22-26.8,7.71-53.35,15.23-73.49,20.92-1.23.35-1.47.54-1.48,2,0,5.15-.17,10.37-.3,15.43-.11,4.46-.23,9.07-.27,13.6,0,3.39-1.61,5.42-4.93,6.39-3.86,1.13-7.78,2.32-11.57,3.47s-7.46,2.27-11.2,3.36A10.05,10.05,0,0,1,674,564.19Z"/><path d="M784.75,493.9c-1.33,2.41-3.55,2.29-5.3,2.79Q742.73,507.25,706,517.61c-2.06.58-2.92,1.53-2.93,3.86-.07,9.67-.47,19.34-.57,29,0,2.6-1.12,3.8-3.49,4.49-7.61,2.22-15.17,4.61-22.77,6.83-3.66,1.07-5.29-.07-5.46-3.91-.37-8.35-.31-16.7.07-25,.22-4.81.07-4.94-4.47-3.64q-45.08,12.93-90.13,25.94c-6.59,1.89-13.2,3.69-19.77,5.64a9.14,9.14,0,0,1-4.44.34c.75-2.67,3.18-2.4,4.8-2.88,23.88-7,47.82-13.81,71.71-20.77,23.28-6.79,46.39-14.24,69.83-20.42,27.26-7.2,54.19-15.5,81.39-22.89A8.11,8.11,0,0,1,784.75,493.9Z"/><path d="M546.23,566.83C466.49,542.88,387,518,326.69,499l1.13-3.84c72.52,20.06,145.57,42.74,216.21,64.68l5.84,1.81-1.72,5.68Z"/><path d="M327.29,497.13C401.1,517.55,474.23,540.3,547.38,563c-.19.64-.39,1.27-.58,1.9C473.47,542.88,400.36,520.12,327.29,497.13Z"/><path d="M319.17,601.7a3.16,3.16,0,0,1-2.41-1,4.48,4.48,0,0,1-.81-3.61c0-.21,0-.41,0-.58q0-19,0-37.92v-7.38h-.69V502.71c0-.83,0-1.66.06-2.49a3.55,3.55,0,0,1,3.11-3.59h.35c.83,0,2.81.33,3.16,3.4a44.13,44.13,0,0,1,.34,5c.06,34,.09,63.88.09,91.43,0,.19,0,.4.05.62a4.6,4.6,0,0,1-.76,3.62,3.2,3.2,0,0,1-2.38,1Z"/><path d="M317.27,549.22V502.71c0-.79,0-1.59.05-2.38s.46-1.62,1.32-1.71c1-.1,1.24.87,1.32,1.63a41.8,41.8,0,0,1,.33,4.75q.09,45.71.09,91.42c0,1.21.64,3.23-1.15,3.27s-1.24-2-1.25-3.18q0-23.64,0-47.29Z"/></g></g></svg>