<svg xmlns="http://www.w3.org/2000/svg" viewBox="0 0 1119 1119"><defs><style>.cls-1{fill:#788c5d;}</style></defs><g id="Layer_2" data-name="Layer 2"><g id="Layer_1-2" data-name="Layer 1"><rect class="cls-1" width="1119" height="1119"/><path d="M563.42,810.28c-72-.33-131.95-22.1-180.89-71-34.2-34.15-55.6-75.57-66.12-122.47-12.83-57.14-8.58-113.21,19.41-165,25.56-47.26,61.88-84.69,108.88-113.08,51.45-31.07,105.62-34.08,162.4-27.07A217.19,217.19,0,0,1,637.7,318c10.33,2.82,20.18,6.54,29,12.9,5.37,3.87,11.33,7,17.16,10.15,60.72,33.24,99,84,117.6,150.21,6.36,22.63,8,45.84,8,69.21C809.66,612.28,795,659.68,767,703c-19.85,30.7-47.31,53.39-78.83,71-10.88,6.08-23.19,9.16-32.19,18.92-4.47,4.85-11.84,5.66-18.4,7C611.89,805.17,586.39,811.42,563.42,810.28Zm30.66-12.91c-101.16,5-182.24-31.75-241.59-114.7,21.91,39.26,53.36,68.63,92.47,89.82C491.63,797.78,541.92,803.1,594.08,797.37Zm4.64-477.23c-47-15.16-167.37,20.28-188,54.28C468.41,340,529.62,316.65,598.72,320.14ZM659,345.63c37.92,17.68,67.9,45.46,97.35,76.77-.37-2.9-.24-3.65-.56-4.08-2.25-3-4.53-6-6.9-8.93a230.8,230.8,0,0,0-75.37-61.11C669.17,346.06,664.58,344,659,345.63ZM352.31,452.12c8.25-14.85,18-28.67,26.06-43.43A80.68,80.68,0,0,0,352.31,452.12Zm419.77,217.2c6.6-6.63,9.67-15.09,12.17-23.82a1.54,1.54,0,0,0-1.29-2,2.32,2.32,0,0,0-2.56,1.61C777.11,653,773.49,660.66,772.08,669.32Zm-83.19,91.56c7.4-3.36,14.27-7.4,18.86-14.42C700.62,750.15,693.47,753.8,688.89,760.88ZM628.28,334.76a30.28,30.28,0,0,0,16.77,5.77C639.53,336.18,633.87,335.64,628.28,334.76Z"/></g></g></svg>