<svg xmlns="http://www.w3.org/2000/svg" viewBox="0 0 1119 1119"><defs><style>.cls-1{fill:#6a9bcc;}</style></defs><g id="Layer_2" data-name="Layer 2"><g id="Layer_1-2" data-name="Layer 1"><rect class="cls-1" width="1119" height="1119"/><path d="M321.7,347c-1.36-1.19-3.55-1.57-2.51-3.63.84-1.65,2.48-1.05,3.82-.72,2,.51,4-.86,6.06.5,0-.66,0-1.05-.07-1.08-1.59-.6-4.1-.35-3.78-2.95.35-2.86,2.9-2.06,4.67-2,14.44.83,28.29-3.08,42.32-5.32,26-4.15,51.07-12.61,76.69-18.58,10.35-2.41,20.76-4.55,31.19-6.63a123.85,123.85,0,0,0,27.74-8.67c14.72-6.76,29.67-13,44.51-19.51,1.17-.52,3-1,3.28-1.87,1.53-4.78,4.27-2.7,6.53-1.18,4,2.71,7.81,3.54,11.94.32,1.18-.92,2.87-1.9,4,0,1.07,1.74-.17,2.87-1.58,3.78-.63.42-1.21.93-1.93,1.48,1,1.34,2.45,1.52,3.64,2.08,32.25,15,66.41,24.24,100.55,33.57,29.37,8,58.3,17.88,88.45,22.72,7.12,1.14,14.27,2.89,21.57,3,1.64,0,2.73.1,3.71,1.89,1.24,2.27,4.23,1.94,5.86-.3a2.38,2.38,0,0,1,2.25-1.22,2.32,2.32,0,0,1,2.17,2.38c0,2.93,1.91,3.51,4.16,4.06,1.4.34,2.89,1.06,2.45,2.9-.38,1.61-1.9,1.71-3.18,1.44-3-.62-3.15.9-3,3.22,1,12,2.37,24.05,2.61,36.09.92,45,2.08,90-5.31,134.75-2.39,14.44-2.36,29.2-4.88,43.68a479.77,479.77,0,0,1-30.28,104.73A171.76,171.76,0,0,1,736.22,723c-17.27,19.66-36.34,37.43-56.14,54.39-15.94,13.65-35,22.63-52.87,33.41-21.14,12.77-43.42,23.18-65.86,33.32-2.64,1.19-5.79-.45-8.43,1.3-.21.14-1.47-.59-1.47-.93,0-3.75-3.3-3.81-5.56-4.81-15.66-6.91-29.26-17.19-43.41-26.54-12-7.94-24.87-14.52-36.26-23.41-19.43-15.17-39-30.12-57.74-46.2a95.42,95.42,0,0,1-14.42-15.77c-12.48-16.86-26.95-32.32-36.2-51.46-14.31-29.61-23.76-60.76-29.56-93.09-2-11.35-6.05-22.23-8.06-33.63C312.42,505.1,308,460.41,310,415.19c.72-17.23.64-34.51,1-51.76,0-2.16-.15-4.27,1.78-6.08,1.37-1.29,1.32-3.2-.2-4.82-1.67-1.79-2.7-3.67.32-5.26,1.45-.77.78-2.34,1.21-3.5s.89-2.26,2.37-2c1.31.19,1.61,1.33,1.48,2.37C317.55,346.72,319.05,347.12,321.7,347Zm15.72,93.77c.67,11.27,1,22.55,1.37,33.83.46,15.67-.42,31.48,2.6,47,7.28,37.41,16.05,74.39,29.07,110.39,10.18,28.14,25.16,52.92,45.78,74.21s41.47,41.85,65.49,59.14c7,5.08,14,10.34,20.7,15.86,15.22,12.51,31.93,22.53,49.48,31.4,6.19,3.13,11.08,4.55,16.15-1.17a13.59,13.59,0,0,1,3.56-2.35c20.14-11.3,39.23-24.3,58.72-36.65,34-21.54,64.37-47.24,89.4-79a56.28,56.28,0,0,0,6-9c14.55-28.11,28.6-56.39,37.73-86.89,4.89-16.31,9.44-32.58,10.45-49.69q1.69-28.75,3.89-57.47c3.08-40.54,5.11-81.06-.8-121.55-.41-2.86-1.32-4-3.94-4.49-12.22-2.31-24.38-5-36.66-7-33.19-5.39-65.87-12.65-97.58-24.16-18.65-6.77-37.51-12.89-54.45-23.57a184.92,184.92,0,0,0-17-9.46,4.12,4.12,0,0,0-4.62.1c-15.33,9.86-31.78,17.45-48.74,24-14.61,5.67-29.19,11.46-43.76,17.24-26.29,10.44-53.83,14.12-81.84,15a441.9,441.9,0,0,0-47.65,4.22c-2.59.36-3.64,1.24-4.06,4a113.43,113.43,0,0,0-1.65,22.46C335.93,405,336.66,422.84,337.42,440.73Zm72.32,265.48c27.59,41.89,69.05,67.36,109.6,93.91C480.93,771,442.44,742,409.74,706.21Zm294,13.35C678,743.29,652,766.69,624.5,788.29,646.19,780,688.46,743.45,703.71,719.56ZM421.37,348.9c16.33.08,84.55-22.47,102.72-34.11-4.7,1.34-8.36,2.53-12.09,3.43-15.36,3.7-30.7,7.4-45.17,14C452.12,339,437.43,345.8,421.37,348.9ZM354.32,615.36c-13.41-55-23.11-110.67-28.09-167.11C331.22,504.69,337.53,560.91,354.32,615.36Zm9-277.41c18.58.64,91.3-16.5,103.5-24.32C431.83,320.69,398.45,333,363.33,338Zm260.74-30.87c11.58,6.93,73.69,25.47,82,24.66C679.17,322.83,652.16,315,624.07,307.08ZM376.86,697.73c-16.72-27.7-27.24-58-38.07-88.16C347.28,640.81,356.87,671.57,376.86,697.73Zm74.93-363.44c-.65-.16-.93-.33-1.13-.27-21.32,7.22-43.52,10.44-65.54,14.46-5.12.93-10.37,1.45-15.1,4C397.68,348.78,425.54,346.05,451.79,334.29ZM331.2,395.54c-4.5,26.14.3,52,3.31,78Q332.86,434.54,331.2,395.54ZM321.23,524c-2.5-30.13-4.93-60.27-6.63-90.47C313.19,463.94,315.76,494.06,321.23,524Zm474.28-16c-4.45,26.7-7.78,52.6-10.76,78.55C790.81,561,795.34,535.29,795.51,508Zm-40.68,147.6c-13.67,22.16-28,43.95-45.2,63.71l1.58,1.08C729.65,701.5,742.11,678.48,754.83,655.61Zm42.51-249.53c-1.17,6.64.23,55.18,1.68,58.22C801.71,447.08,800.93,420.3,797.34,406.08ZM456.86,322.62c21.37-4.5,42.1-10.58,61.59-20.37C496.89,306,477.68,316.91,456.86,322.62ZM374.41,662.11c5.8,16.59,27.27,48.32,37.61,55.46C397.73,699.6,386.35,680.67,374.41,662.11ZM710,338a519.47,519.47,0,0,0,68.67,15C756,347,733.1,341.91,710,338Zm-5.93,406.87c6.79-5.14,30.55-34.52,32.25-39.41C723,716.23,714.56,731.36,704.05,744.85ZM605.1,816.14c8-1.71,41.16-22.91,47.13-30C635.71,795.38,620.94,806.59,605.1,816.14Zm91.43-476.47c-21.19-6.05-42.26-12.53-63.37-18.85C653.51,329.73,674.74,335.64,696.53,339.67Zm40.14,333.25c10.2-11.36,22.77-39,23.18-50.93C754.05,639.84,744.79,656.12,736.67,672.92Zm25.29-.77C750.88,689.92,741.69,708.87,728,725,743.34,709.92,753.8,691.76,762,672.15Zm-391.23,3.63a221.8,221.8,0,0,0,40.18,53.36A643.12,643.12,0,0,1,370.73,675.78ZM785.32,388.4l3.9,57.61C792.37,426.52,787.9,407.54,785.32,388.4ZM569.13,816.24c20.48-10.76,40.57-22.16,58.64-36.75C608.23,791.75,589,804.5,569.13,816.24ZM784.28,460.91c-1.29,18.26-2.51,35.61-3.72,53C784,500.34,785.51,476,784.28,460.91ZM347.38,618.16c-1.62-11.3-10.22-35.53-14.42-40.84C336.47,591.63,342.13,604.8,347.38,618.16ZM335.61,568c-2.78-12.29-5.56-24.57-8.5-37.58C326.47,540.31,330.93,561.05,335.61,568Zm277.77-259.4c-12.45-5.29-24.44-11.56-37.06-16.39C588.11,298.92,600.23,304.92,613.38,308.57ZM320.12,356.1a177.87,177.87,0,0,0-2.28,42.17C318.39,384.19,319.89,370.18,320.12,356.1Zm114-22c-14.58,2.45-29.19,4.68-43.43,8.78C405.25,340.2,419.94,338.33,434.15,334.08Zm263,412.37c-7.69,6.56-15.87,12.58-22.76,20.06A65.53,65.53,0,0,0,697.11,746.45ZM359.16,612.63c2.5,12.35,5.79,24.43,12.65,35.23Q365.48,630.25,359.16,612.63ZM559.4,295.37c-2.37-.88-3.22-2.63-5.12-1.38-6.89,4.54-14.33,8.11-21.23,12.78ZM324.81,397.5c.69-12.61,2.46-25.16,1.67-37.83C324,372.19,324.44,384.85,324.81,397.5ZM767.85,613c3.84-12.5,5.79-25.39,7.86-38.25C771.72,587.24,770.38,600.25,767.85,613ZM637,786.33l-29.07,17.22A95.72,95.72,0,0,0,637,786.33ZM522.83,820.84c7.78,5.48,15.41,11.23,25.52,14.81C540,829,531.32,825.09,522.83,820.84ZM352.32,343.18l.25-1.17c-5.81,0-11.63,0-17.44.05-1,0-2.69-.52-2.71,1.23,0,1.95,1.74,1.55,2.94,1.53A125.16,125.16,0,0,0,352.32,343.18ZM791.24,480.3a92,92,0,0,0-2.41,28A162.47,162.47,0,0,0,791.24,480.3ZM494.85,793.75c5.12,6.11,12,9.68,19,13.07A112.57,112.57,0,0,0,494.85,793.75ZM797.27,376.14l.1,0q0-11,0-21.93a8.82,8.82,0,0,0-.15-1.15,1.25,1.25,0,0,0-1.65-1.15c-1.64.37.11,1-.06,1.58-.64,2,.5,3.91.52,5.95C796.08,365,796.81,370.56,797.27,376.14Zm-206.36,442c-5.29,2.29-10.58,4.59-15.88,6.86-1.15.49-1.75,1.26-1,2.4s1.63.13,2.3-.22C581.33,824.58,586.4,822,590.91,818.15ZM348.05,348.39c9.94.66,22.38-1.47,26.3-4.5ZM764.2,639.86c3.62-6.28,7.1-12.51,6.53-20ZM359.49,650.54q-5.08-14.41-10.15-28.84A133.55,133.55,0,0,0,359.49,650.54ZM686.17,342.33a146.31,146.31,0,0,0,31.33,6.47ZM530.56,292.7l.24.64c6.28-2.22,12.56-4.43,18.83-6.68.68-.24,1.65-.47,1.28-1.54s-1.33-.51-1.91-.27C542.84,287.43,536.71,290.08,530.56,292.7ZM322.42,476.28c.1,8.54.63,17,2.62,25.3C324.6,493.1,324.29,484.6,322.42,476.28Zm67.73,238.08a108.09,108.09,0,0,0,13.24,17.43,1.17,1.17,0,0,0-.1-1.68C399.17,724.65,395.21,719.07,390.15,714.36ZM781.46,616.8c-3,4.69-8.09,21.09-8,25.58Zm-354.74,123a79.37,79.37,0,0,0,19,17.93ZM784,535.43q-1.21,10.22-2.45,20.41C784.6,549.24,784.87,542.32,784,535.43ZM554.3,282.67c3.26,2.92,5.46-.3,8.55-1.22C559,277.36,557.12,282.49,554.3,282.67ZM756.59,669.94c3.22-5,6.28-10.21,7.13-16.37Q760.15,661.76,756.59,669.94Zm9.94-312-.07.45c3.58.88,7.15,1.79,10.73,2.62.6.14,1.49,1,1.89-.19s-.71-1.49-1.55-1.59C773.86,358.76,770.19,358.37,766.53,358ZM708.77,728.28c-3.85,3.15-7.53,6.49-10.15,10.8A41.92,41.92,0,0,0,708.77,728.28Zm-151.39,105c2.27,2.55,4.46,2.95,6.74.12C562,832,559.91,830.69,557.38,833.23Zm64.28-511.06a26.08,26.08,0,0,0-12.09-4.73Zm-54.23-35c-2-.67-3,.51-4.28,1.29-.47.3-.87.67-.35,1.15a4.92,4.92,0,0,0,1.86,1.2c.74.18.63-.59.6-1.06C565.19,288.28,566.31,287.8,567.43,287.21Z"/><path d="M577.06,588.67c0,3.11.08,6.22,0,9.33-.07,1.93.45,3,2.58,2.72a9,9,0,0,1,1.16,0c9.79.22,10.82,1.47,9.79,11.37-.28,2.74-1.52,4.31-4.28,4.63-.64.07-1.28.16-1.93.22-8,.64-7.92.64-7.23,8.7.15,1.66.65,2.36,2.31,2.25a29.18,29.18,0,0,1,3.5,0c2.67.14,6-.55,7.16,2.58a14.9,14.9,0,0,1-.34,11.75c-1.17,2.36-4.06,1.93-6.34,2.08-6.39.42-6.38.37-6.3,6.93.06,4.28,0,8.56.06,12.84,0,3.45-1.61,5.34-5.15,5.43-.25,0-.51,0-.77.06-9.31.75-10.56-.21-10.48-9.51,0-3.8-1-4.88-4.83-4.44-7.28.83-7.31.61-7.65,7.77-.23,4.77-1.28,5.91-6,6.4l-.39,0c-8.53.74-10.15-.56-10.59-9a98.33,98.33,0,0,1,.29-15.15c.35-3.44,2.26-4.65,5.26-5.07a183.66,183.66,0,0,1,20.56-1.45c2.47-.07,3.4-.69,3.27-3.31-.26-5.31-.28-10.64-.23-16,0-2.19-.7-3-2.91-2.89-2.71.16-6-.83-8,.36s-.47,4.72-.81,7.2c-.69,5-1.48,5.87-6.68,5.93-10,.13-11.61-1.6-10.48-11.21.52-4.41,1.49-5.25,6.35-5.49,5.71-.29,5.44-.31,5.95-6,.29-3.27-.72-3.92-3.69-3.8-2.74.11-6.29.9-7.72-2.21-1.77-3.83-1.49-8.09-.09-12.13a3.08,3.08,0,0,1,2.74-1.94,33,33,0,0,1,10.06.23c3.18.65,3.36,3.13,3.44,5.71.21,7.19.23,7,7.61,7.13,3.38,0,4.46-.89,4.39-4.33a127.12,127.12,0,0,1,.64-17.87c.39-3.35,2.17-4.81,5.34-4.91a36,36,0,0,1,3.89,0c5.58.39,6.63,1.52,6.7,7.22,0,2.6,0,5.19,0,7.79Z"/><path d="M518.46,637.07a118.83,118.83,0,0,1-1.19,24.06c-1.19,7.26-3.44,9.53-10.76,10.6-16.56,2.42-33.14,1.9-49.66-.22-8.1-1-10.38-3.54-12-11.91a108.16,108.16,0,0,1-1.53-22.87,184.79,184.79,0,0,1,2-26.36c.73-4.47,3.2-6.89,7.33-8A73.28,73.28,0,0,1,469.57,600a233.67,233.67,0,0,1,37.3,1.62c6.08.76,8.2,2.68,9.83,8.77a60.79,60.79,0,0,1,1.72,13.48C518.59,628.24,518.46,632.66,518.46,637.07Zm-11.57,0c0-5.06.25-10.13-.06-15.17-.53-8.75-.66-8.94-9.17-9.71-12.53-1.13-25.09-1.77-37.64.17-2.43.38-3.69,1.39-4,3.85a158.31,158.31,0,0,0-.25,39.57c.35,2.77,1.53,4.39,4.59,4.71a190.85,190.85,0,0,0,41.93.21c2.61-.3,3.82-1.52,4.1-4.2A130,130,0,0,0,506.89,637Z"/><path d="M518.66,464.87c0,7.78-.14,15.56-1.37,23.25-1.11,7-3.55,9.61-10.43,10.54a187.2,187.2,0,0,1-51.9-.55c-5.29-.76-8.23-3.73-9.53-8.83-1.65-6.47-2-13-2.11-19.65a196.21,196.21,0,0,1,1.82-31c.76-5.43,3.72-8.14,8.84-9.35,10.47-2.47,21.09-2.33,31.71-1.95,6.34.23,12.67.81,19,1.32,8.66.7,10.95,2.8,12.48,11.43C518.62,448.27,518.63,456.57,518.66,464.87Zm-11.9-.51c0-5.31.41-10.66-.09-15.92-.9-9.33-.57-8.42-9-8.93-.9-.06-1.8-.2-2.7-.28-11.64-.93-23.28-1.39-34.9.3-2.15.32-3.73,1-4,3.38-1.55,13.43-2.1,26.86-.1,40.3.36,2.41,1.44,3.82,4.19,4.15a189.8,189.8,0,0,0,41.88.43c2.77-.28,4.06-1.58,4.35-4.41A120.8,120.8,0,0,0,506.76,464.36Z"/><path d="M683.42,464.82c-.08,7.13.13,14.27-.84,21.36-1.32,9.56-3.05,11.53-12.53,12.76a186.5,186.5,0,0,1-50.39-.77c-5.14-.72-8.08-3.5-9.35-8.48a59.31,59.31,0,0,1-1.86-11.5,212.58,212.58,0,0,1,1.25-38.82c.75-5.72,3.58-8.83,9.08-10a95,95,0,0,1,19.29-2.17,264.85,264.85,0,0,1,32.23,1.49c7.74.86,9.83,2.63,11.56,10.21C683.83,447.42,683.15,456.15,683.42,464.82ZM645.8,438.25a171,171,0,0,0-20.87,1.35c-2.6.36-3.81,1.53-4.16,4.17A160.61,160.61,0,0,0,619.42,462a110,110,0,0,0,1.36,21.29c.37,2,1,3.58,3.48,3.93a175.28,175.28,0,0,0,43,.67c2.47-.27,3.73-1.51,4-3.92a212.53,212.53,0,0,0,0-40c-.28-3-1.84-4.2-4.77-4.35C659.42,439.26,652.44,438.71,645.8,438.25Z"/><path d="M522.72,530.64c-6.08,0-10.75.12-15.42,0-4.43-.16-5.62-1.5-5.9-6,0-.39,0-.78-.06-1.16-.24-8.17.69-9.07,9-9.2,6.09-.09,12.17-.45,18.26-.47,2.81,0,3.71-.83,3.57-3.81-.51-11-.86-22-1-33-.09-10.09.28-10.41,10.23-11.37,5.41-.53,10.87-.76,16.3-.86,4.74-.08,6,1.28,6.3,5.91,0,.64,0,1.29,0,1.94.09,7.3-.56,8-7.77,8.4-8.76.5-8.84.5-8.56,9.22.32,9.85.85,19.69,1.17,29.53.26,7.87-.51,8.75-8.2,9.48C534.24,529.83,527.77,530.24,522.72,530.64Z"/><path d="M593.59,505c0,6.08.07,12.17,0,18.26-.06,4.47-1.13,5.66-5.45,5.77-6.86.17-13.73.09-20.59.15-3.65,0-5.49-1.62-5.58-5.36-.35-13.21-.45-26.41.23-39.62.17-3.2,1.8-4.66,4.84-4.9a145.16,145.16,0,0,1,21-.25c3.3.23,4.93,1.72,5.23,5C593.85,491,593.49,498,593.59,505Z"/><path d="M610.62,601.6c7.56-2.52,15.09-1,22.57.32,2,.36,2.25,2.62,2.49,4.46a147.42,147.42,0,0,1,.86,19c0,2.7.87,3.72,3.52,3.62a45,45,0,0,1,5,.41c7,.55,7.78,1.2,8.23,8,.29,4.39.18,8.81.17,13.21,0,3.58-1.66,5.61-5.44,5.54-1.17,0-2.33.06-3.5,0-6.48,0-7.46-.83-7.55-7.39,0-3-1.07-4-4-4.07-6.6-.18-13.2-.73-19.8-1-3.94-.16-5.54-2.27-5.6-6,0-1,0-2.07,0-3.11.24-5.84,1.44-6.9,7.23-7.08,1.64-.06,4.29,1.3,4.81-.85a18.64,18.64,0,0,0-.34-9.22c-.29-1-1.84-.66-2.82-.82-7.14-1.1-7.72-1.78-7.3-9,.13-2.19.25-4.41,1.56-6.32Z"/><path d="M540.16,558.77l-.51,9.32c-.2,3.5-1.89,5.28-5.54,5.68a218,218,0,0,1-23.69.78c-3.27,0-4.71.67-4.4,4.28.22,2.58.8,6-2.29,7.24a16.63,16.63,0,0,1-12.12,0c-1.42-.54-1.76-2.15-1.95-3.6a75.56,75.56,0,0,1,0-19.76c.43-3.3,2.75-4.17,5.56-4.23,7.9-.15,15.81-.36,23.72-.26,3.32,0,4.63-.76,4.72-4.43.2-8.62,4.75-11.46,13-8.72a4.32,4.32,0,0,1,3.13,4.41c.09,3.11,0,6.22,0,9.33Z"/><path d="M562.45,447.41c0-4.67,0-9.33,0-14,0-3.39,1.77-5.19,5.27-5.38,6.48-.36,13-.31,19.43,0,3,.13,4.85,1.56,5.18,4.68a195.14,195.14,0,0,1,.89,29.11c-.11,2.6-1.68,4-4.22,4.21a110.06,110.06,0,0,1-22.52,0c-2.91-.31-4.37-2-4.37-5,0-4.53,0-9.07,0-13.6Z"/><path d="M610.74,601.49c-6,1.9-12,1.51-18.08.89a4.58,4.58,0,0,1-4.37-4.66,113.77,113.77,0,0,1,.33-19.79,4.17,4.17,0,0,1,4.06-4c2.19-.25,2.62-1.34,2.62-3.34q0-9.72.42-19.43c.17-4.24,1.54-5.47,5.71-5.72,9.2-.56,10.58.44,10.59,9.6,0,13.86-.34,27.73-.62,41.59a35.35,35.35,0,0,1-.78,5Z"/><path d="M637,573.52c0-7.27.08-14.53,0-21.8-.06-3.67,1.49-5.62,5.14-5.88l.39-.06c8.66-1.18,10.47.19,10.86,8.85.6,13.48.6,27,.12,40.47-.19,5.42-1.38,6.45-6.92,6.48-1,0-2.08,0-3.11-.09-4.77-.38-6.22-1.81-6.27-6.57-.08-7.13,0-14.27,0-21.4Z"/><path d="M668.31,514.11c3.23,0,6.47-.07,9.71,0,2.79.09,4.22,1.69,4.37,4.45,0,.26,0,.52.05.78.61,9.67,0,10.32-9.56,11l-1.17.08c-5.3.36-5.3.36-5.42,5.49-.2,8.73-1,9.51-9.74,9.19-5.35-.2-6.58-1.31-6.88-6.71a152.42,152.42,0,0,1,.07-17.1c.24-4,2-6.18,6.17-6.39s8.25-.69,12.38-1Z"/><path d="M666.36,630.38c-3.62,0-7.24,0-10.86,0-3.78,0-5.65-2-5.85-5.75a158.39,158.39,0,0,1,0-18.23c.2-3.17,1.77-5,5.15-5,.52,0,1-.06,1.55-.09,8.46-.45,9.53.38,9.54,8.84,0,3.24,1,4.26,4.15,4a49.54,49.54,0,0,1,8.5.49,4,4,0,0,1,3.8,4.16c0,.26,0,.52,0,.77.55,10.06-.19,10.86-10.2,11.08-1.94,0-3.88,0-5.82,0Z"/><path d="M490.22,538c0,5.43.06,10.88,0,16.31-.07,4.24-1.33,5.45-5.57,5.81l-.38,0c-8.77.54-10.28-.76-10.61-9.48-.36-9.45-.37-18.91.18-28.36.15-2.47-.14-5.61,3.07-6.51,3.89-1.09,7.95-1.51,11.7.56,1.65.91,1.61,2.87,1.62,4.55C490.25,526.61,490.22,532.31,490.22,538Z"/><path d="M567.37,549.18c5.18,0,10.35-.06,15.53,0,4.72.07,6,1,6.31,4.59a25.13,25.13,0,0,1,0,3.88c-.14,2.39-1.78,3.56-4.9,3.74-11,.64-22,.56-33,.22-5-.16-6-1.16-6.14-5,0-.9,0-1.8,0-2.7.21-3.44,1.44-4.49,5.87-4.58,5.43-.11,10.87,0,16.31,0Z"/><path d="M461.7,558c2.53,0,5,0,7.44,0a6.69,6.69,0,0,1,3,.44c4.72,2.68,2.69,7.29,2.92,11.19.16,2.75-1.6,4.22-4.27,4.6-.38,0-.77.08-1.16.11-2.57.22-5.61-.33-7.6.87-2.28,1.36-.68,4.71-1.18,7.15-.58,2.83-2,4.24-4.93,4.51-10.21,1-11.82-.41-12-10.72a80.37,80.37,0,0,1,.46-12c.39-2.85,1.64-4.49,4.59-4.78C453.28,558.94,457.51,558.43,461.7,558Z"/><path d="M636.48,531.73c0,2.59.06,5.19,0,7.78a5.39,5.39,0,0,1-.66,3c-3.15,4-7.62,2.07-11.57,2.2-2.73.1-3.62-2.09-4-4.41-.07-.38-.09-.77-.14-1.16-.32-2.56.78-5.63-.77-7.58s-4.67-.42-7-1c-1.41-.37-2.83-.77-3.31-2.36a18.85,18.85,0,0,1,0-11.08c.53-1.77,2.12-2.27,3.69-2.4a96,96,0,0,1,19,.2c2.54.3,3.51,1.84,3.94,4.09A75,75,0,0,1,636.48,531.73Z"/><path d="M614.1,669.52c-4.4,0-8.8,0-13.21,0-3.32,0-5-1.66-5.23-4.93,0-.64-.12-1.29-.15-1.93-.3-7.72.5-8.64,8.23-9.29a208.94,208.94,0,0,1,22.52-.37c5.57.12,6.85,1.54,6.92,7,0,1.42-.08,2.85-.18,4.27-.21,3.3-2.1,4.89-5.3,4.93-4.53,0-9.06,0-13.6,0Z"/><path d="M460.73,530.29c0,3.62.09,7.25,0,10.87-.09,3-1.84,4.24-4.76,4.53-10.32,1-11.87-.28-11.92-10.68a134.22,134.22,0,0,1,.48-15.53c.35-3.14,2-4.65,4.94-4.94a38.11,38.11,0,0,1,4.27-.17c5.39.08,6.6,1.17,6.89,6.59.16,3.1,0,6.22,0,9.33Z"/><path d="M548.32,441.84c0,.43,0,.56,0,.69.21,10.41-1.93,12.18-12.41,10.48a4.12,4.12,0,0,1-3.86-3.7,58.49,58.49,0,0,1-.34-16.66,4.34,4.34,0,0,1,4.27-4.21c.77-.08,1.54-.24,2.31-.3,7.72-.64,9.18.57,9.75,8.18C548.2,438.26,548.25,440.2,548.32,441.84Z"/><path d="M673.06,656.34h-.39c-9.37-.32-11.28-2.78-9.6-12.09.49-2.7,1.92-4.17,4.61-4.37,1.55-.11,3.11-.14,4.66-.1,9.76.23,10.72,1.31,10,11-.32,4.25-1.53,5.44-5.78,5.6-1.16,0-2.33,0-3.5,0Z"/><path d="M672.21,590.06c-8.46.07-11.92-5.29-8.73-13.42a4.28,4.28,0,0,1,3.88-2.73,42.51,42.51,0,0,1,10.81,0c2.77.34,4.06,2,4.16,4.68l0,.77C682.83,589.07,682,590,672.21,590.06Z"/><path d="M704.47,419.68c0,3.19.09,5.92,0,8.63-.09,2.15-.5,4.49-3.32,4.3-2.58-.17-2.6-2.41-2.63-4.43,0-4.41-.33-8.82-.17-13.22.15-4-1.68-5.21-5.4-4.78-3,.33-5.95.39-8.93.45-2,.05-4.13-.34-4.23-2.91-.1-2.38,1.91-2.93,3.76-3.07,5-.38,10.07-.92,15.13-.17,3.09.46,5,1.84,5.14,5.2S704.26,416.66,704.47,419.68Z"/><path d="M439,694.9c-4-.5-7.5-.36-10.91-1.32a4.53,4.53,0,0,1-3.56-3.64c-1.25-6-1.05-12.09-.48-18.14.17-1.86,1-3.72,3.4-3.33,2.28.37,2.62,2.21,2.54,4.15-.17,4-.65,8-.25,12,.25,2.65,1.28,3.49,3.76,3.68a107,107,0,0,0,12,.23c2.11-.08,4.1.28,4.26,2.82s-1.92,3-3.95,3.19C443.36,694.7,440.91,694.79,439,694.9Z"/><path d="M437.92,406.2c2.08,0,4.15-.08,6.22,0s4.18.52,4.15,3.08-2,3.1-4.12,3.12c-3.63.05-7.27.21-10.88,0s-5.27,1-4.89,4.88c.33,3.34.27,6.73.3,10.1,0,1.91-.32,3.87-2.75,3.89-2,0-2.92-1.61-3-3.42-.26-5.17-.76-10.33-.16-15.53.39-3.35,2.19-5.18,5.45-5.52s6.45-.53,9.68-.78Z"/><path d="M703.43,672c0,.77,0,1.55,0,2.32-.21,11-.21,11-11.39,11.42a80.7,80.7,0,0,1-8.52-.14c-1.75-.13-3.47-1-3.41-3,.07-2.26,1.9-3,3.86-2.87a75.93,75.93,0,0,0,10.45,0c2.11-.14,3-.92,3-3,0-4,.2-8,.32-12,0-2.08.41-4.08,3-4s2.53,2.14,2.57,4c0,2.45,0,4.91,0,7.37Z"/><path d="M627.34,576.53c5.43,0,6.65,1.24,6.64,6.62,0,6-1.18,7.11-7.39,7.06-5.35,0-6.6-1.41-6.52-7.18C620.15,577.75,621.55,576.49,627.34,576.53Z"/><path d="M500,636.63c-.22,4.52-.46,9-.67,13.57-.1,2.23-1,3.66-3.43,3.87a171.69,171.69,0,0,1-30.25-.31c-2-.18-2.81-1.56-3-3.43a136.4,136.4,0,0,1,.1-27.92c.21-2.31,1.47-3.45,3.76-3.61a161.31,161.31,0,0,1,29.07.31c2.77.3,3.86,1.7,3.85,4.31,0,4.4,0,8.8,0,13.2Z"/><path d="M499.91,463.66c-.21,4.4-.45,8.8-.6,13.2-.09,2.62-1.19,3.93-4,4.23-9.73,1-19.43.19-29.14-.29-2.35-.12-3.34-1.51-3.61-3.77-1.09-9.2-.69-18.38.12-27.57.2-2.22,1.46-3.19,3.53-3.38a153.1,153.1,0,0,1,29.89.28c2.57.27,3.16,2,3.18,4.07.05,4.41,0,8.81,0,13.22Z"/><path d="M664.32,463.75c0,4.53,0,9.06,0,13.58,0,2.29-1.1,3.51-3.5,3.77-10,1.09-19.92.25-29.86-.3-2.05-.11-3.16-1.35-3.38-3.54a138.47,138.47,0,0,1,.12-27.91,3.19,3.19,0,0,1,3.26-3.16,143.33,143.33,0,0,1,30.22.27c2.26.27,3.11,1.64,3.12,3.7,0,4.53,0,9.06,0,13.59Z"/></g></g></svg>